<svg id="Layer_1" data-name="Layer 1" xmlns="http://www.w3.org/2000/svg" viewBox="0 0 1287 596.98"><defs><style>.cls-1{fill:#474646;}.cls-2{fill:#fff;}.cls-3{fill:#143544;}.cls-4{fill:#46adf2;}</style></defs><title>logo</title><path class="cls-1" d="M1091.1,597a89.62,89.62,0,0,1-87.22-69.24l-10.46,20.47A89.17,89.17,0,0,1,913.71,597H848.48A89.6,89.6,0,0,1,761.33,528l-9,18.47A90,90,0,0,1,671.83,597H587.59a88.27,88.27,0,0,1-72-36.25A86.52,86.52,0,0,1,445.51,597H363.37a85.91,85.91,0,0,1-85.85-82.9l-.23-6.41-39.88,54.27a86.22,86.22,0,0,1-69.23,35H85.91A85.92,85.92,0,0,1,0,510.26L4,88.67C4.43,39.78,44.58,0,93.48,0H195.9a89.64,89.64,0,0,1,87.23,69.24l10.46-20.47A89.14,89.14,0,0,1,373.29,0h65.24a89.58,89.58,0,0,1,87.14,68.94l9-18.47A90,90,0,0,1,615.17,0h84.25a88.26,88.26,0,0,1,72,36.25A86.49,86.49,0,0,1,841.49,0h82.14a85.93,85.93,0,0,1,85.86,82.9l.22,6.41L1049.59,35a86.22,86.22,0,0,1,69.23-35h82.27A85.92,85.92,0,0,1,1287,86.72l-4,421.58c-.46,48.9-40.61,88.68-89.51,88.68Z"/><path class="cls-2" d="M1251.47,36a70.4,70.4,0,0,0-50.38-21h-82.27a71.15,71.15,0,0,0-57.14,28.92L996.23,133,994.5,83.43A70.93,70.93,0,0,0,923.63,15H841.49A71.36,71.36,0,0,0,781,48.88L770.3,66.38a76.59,76.59,0,0,0-5.88-13.29,73.62,73.62,0,0,0-65-38.09H615.17a74.94,74.94,0,0,0-67,42l-34.33,70.83L513,88.09A74.51,74.51,0,0,0,438.53,15H373.29a74.21,74.21,0,0,0-66.35,40.6l-36.75,71.9L270.41,90A74.5,74.5,0,0,0,195.9,15H93.48A74.74,74.74,0,0,0,19,88.82L15,510.4A70.92,70.92,0,0,0,85.91,582h82.27a71.15,71.15,0,0,0,57.14-28.92L290.77,464l1.74,49.56A70.91,70.91,0,0,0,363.37,582h82.14A71.36,71.36,0,0,0,506,548.1l10.72-17.5a75.37,75.37,0,0,0,5.87,13.28,73.61,73.61,0,0,0,65,38.1h84.24a74.93,74.93,0,0,0,67-42l34.33-70.82.76,39.75A74.53,74.53,0,0,0,848.48,582h65.23a74.22,74.22,0,0,0,66.35-40.6l36.75-71.9-.22,37.54a74.5,74.5,0,0,0,74.51,75h102.42A74.76,74.76,0,0,0,1268,508.16l4-421.58A70.39,70.39,0,0,0,1251.47,36Z"/><path class="cls-3" d="M1118.82,45h82.27A40.92,40.92,0,0,1,1242,86.3l-4,421.58a44.53,44.53,0,0,1-44.52,44.1H1091.1a44.51,44.51,0,0,1-44.51-44.78l.62-104.92c.09-14.74-19.74-19.57-26.45-6.45L953.35,527.72A44.52,44.52,0,0,1,913.71,552H848.48A44.52,44.52,0,0,1,804,508.31l-2-106.54c-.28-14.71-20.16-19.07-26.58-5.83L711.88,526.88a44.5,44.5,0,0,1-40,25.1H587.59c-34.79,0-56.13-38.1-38-67.76l257-419.67A40.89,40.89,0,0,1,841.49,45h82.14a40.91,40.91,0,0,1,40.88,39.48l2.77,79.08c.66,18.7,24.55,26.07,35.64,11l82.93-112.86A40.92,40.92,0,0,1,1118.82,45Z"/><path class="cls-4" d="M168.18,552H85.91A40.92,40.92,0,0,1,45,510.68L49,89.1A44.52,44.52,0,0,1,93.48,45H195.9a44.51,44.51,0,0,1,44.51,44.78l-.62,104.92c-.08,14.74,19.74,19.57,26.45,6.45l67.42-131.9A44.51,44.51,0,0,1,373.29,45h65.24A44.51,44.51,0,0,1,483,88.67l2,106.54c.28,14.7,20.16,19.07,26.58,5.83L575.12,70.1A44.52,44.52,0,0,1,615.18,45h84.23c34.79,0,56.13,38.1,38,67.76l-257,419.67A40.89,40.89,0,0,1,445.51,552H363.37a40.91,40.91,0,0,1-40.88-39.48l-2.77-79.08c-.66-18.7-24.55-26.08-35.63-11L201.15,535.29A40.92,40.92,0,0,1,168.18,552Z"/></svg>